#!OML:ASF I:\salsa\salsa 7_09\Patient 1\Session 1\dancerfemale.ASF
:FULLY-SPECIFIED
:DEGREES
1462
root 5.8841 15.7659 7.37299 11.263 497.27 370.57
lowerback 10.2238 -2.1643 11.9184
upperback -4.55238 -1.23587 -1.30929
thorax -11.1497 -1.49895 -7.95096
lowerneck -2.21036 5.72784 -0.579066
upperneck 19.2203 7.68956 6.78833
head 5.86817 4.54132 2.69458
rclavicle 2.22887e-014 3.97569e-015
rhumerus -38.2516 31.4514 -74.4784
rradius 106.322
rwrist -3.18446
rhand 5.21894 73.1855
rfingers 7.12502
rthumb 30.5788 45.7046
lclavicle 2.22887e-014 3.97569e-015
lhumerus -27.7358 31.644 21.4525
lradius 110.56
lwrist 65.0271
lhand 18.7591 49.0607
lfingers 7.12502
lthumb 43.3774 73.1719
rfemur -4.85034 -0.286095 27.9898
rtibia 32.7774
rfoot -15.6377 3.54614
rtoes -31.7497
lfemur -45.3514 30.6519 -15.5301
ltibia 64.5
lfoot -13.5254 28.4025
ltoes 40.6058
1463
root 5.92811 15.7619 7.4747 13.6132 495.238 372.559
lowerback 9.90162 -1.7381 12.4167
upperback -4.62192 -0.589619 -1.01081
thorax -10.8961 -1.19406 -8.03083
lowerneck -2.38341 6.36245 0.210713
upperneck 18.7437 8.5359 6.24519
head 5.78193 4.93553 2.42885
rclavicle 5.8393e-015 6.36111e-015
rhumerus -36.8708 31.45 -73.5535
rradius 106.795
rwrist -3.36643
rhand 5.03953 73.6377
rfingers 7.12502
rthumb 30.4077 46.125
lclavicle 5.8393e-015 6.36111e-015
lhumerus -29.1078 32.472 19.9511
lradius 111.051
lwrist 64.7731
lhand 18.4751 49.0147
lfingers 7.12502
lthumb 43.1119 73.2209
rfemur -5.68918 -2.44169 28.7607
rtibia 32.1736
rfoot -16.2335 7.13374
rtoes -29.606
lfemur -47.5399 32.2746 -14.2123
ltibia 65.9267
lfoot -14.1804 27.7512
ltoes 39.0374
1464
root 5.97607 15.7516 7.56485 15.5858 493.535 374.327
lowerback 9.76459 -1.39285 12.6428
upperback -4.64022 -0.07268 -0.69877
thorax -10.7137 -0.932604 -7.90815
lowerneck -2.55166 6.97346 0.872278
upperneck 18.3363 9.34995 5.77489
head 5.71828 5.3142 2.21144
rclavicle -7.1637e-014 6.36111e-015
rhumerus -35.4856 31.2439 -72.7145
rradius 107.146
rwrist -3.61999
rhand 5.19066 74.4204
rfingers 7.12502
rthumb 30.5518 46.9345
lclavicle -7.1637e-014 6.36111e-015
lhumerus -30.4519 33.2533 18.553
lradius 111.473
lwrist 64.5014
lhand 18.7166 49.1261
lfingers 7.12502
lthumb 43.3377 73.2517
rfemur -5.92016 -4.79921 29.4332
rtibia 31.1906
rfoot -16.5633 10.6266
rtoes -28.3276
lfemur -48.9829 33.9187 -13.0561
ltibia 66.5989
lfoot -14.6382 25.5245
ltoes 34.646
1465
root 6.03441 15.7559 7.64131 16.5704 492.196 375.17
lowerback 9.67464 -1.152 12.1596
upperback -4.51262 0.183309 -0.450243
thorax -10.4368 -0.740189 -7.40083
lowerneck -2.86582 7.52202 1.17634
upperneck 18.0564 10.0657 5.53759
head 5.69724 5.643 2.13102
rclavicle 1.53918e-014 -1.59028e-015
rhumerus -34.0333 30.9192 -71.9289
rradius 107.32
rwrist -3.77914
rhand 4.88554 74.9678
rfingers 7.12502
rthumb 30.2608 47.428
lclavicle 1.53918e-014 -1.59028e-015
lhumerus -31.769 34.0238 17.3447
lradius 111.836
lwrist 64.0733
lhand 19.1373 49.064
lfingers 7.12502
lthumb 43.7306 73.0467
rfemur -5.5752 -6.68997 29.6041
rtibia 30.0913
rfoot -16.7631 13.2371
rtoes -27.0086
lfemur -49.5747 35.212 -12.473
ltibia 66.7576
lfoot -15.1617 22.421
ltoes 27.2282
1466
root 6.09484 15.766 7.70444 17.0499 491.258 375.49
lowerback 9.80377 -0.974943 11.6002
upperback -4.56637 0.373582 -0.340046
thorax -10.5192 -0.612459 -6.99727
lowerneck -2.94971 7.87781 1.38749
upperneck 17.9744 10.5237 5.53105
head 5.68901 5.87163 2.12089
rclavicle 9.20932e-015 6.36111e-015
rhumerus -33.3017 30.344 -71.759
rradius 107.441
rwrist -3.79104
rhand 4.54811 75.3711
rfingers 7.12502
rthumb 29.9389 47.7728
lclavicle 9.20932e-015 6.36111e-015
lhumerus -32.8552 34.301 16.4048
lradius 112.204
lwrist 63.5336
lhand 19.064 48.9839
lfingers 7.12502
lthumb 43.6622 72.9916
rfemur -5.03856 -7.83965 29.6409
rtibia 28.9643
rfoot -16.8556 14.6782
rtoes -25.4429
lfemur -49.8039 35.9874 -12.2664
ltibia 66.7465
lfoot -15.8451 18.835
ltoes 15.9697
